<?xml version="1.0" standalone="no"?>
<!DOCTYPE svg PUBLIC "-//W3C//DTD SVG 20010904//EN"
 "http://www.w3.org/TR/2001/REC-SVG-20010904/DTD/svg10.dtd">
<svg version="1.0" xmlns="http://www.w3.org/2000/svg"
 width="200.000000pt" height="200.000000pt" viewBox="0 0 200.000000 200.000000"
 preserveAspectRatio="xMidYMid meet">
<metadata>
Created by potrace 1.14, written by Peter Selinger 2001-2017
</metadata>
<g transform="translate(0.000000,200.000000) scale(0.100000,-0.100000)"
fill="#000000" stroke="none">
<path d="M960 1460 c-36 -50 -41 -84 -19 -125 15 -28 17 -40 9 -56 -17 -31
-44 -19 -50 21 -7 37 -36 90 -52 90 -5 0 -5 -7 0 -17 12 -23 6 -57 -13 -87
-17 -25 -23 -85 -11 -104 4 -7 31 -12 60 -12 43 0 56 4 74 25 12 14 22 30 22
36 0 5 5 7 11 3 6 -3 9 -19 7 -35 -3 -15 0 -25 5 -22 16 10 25 48 15 68 -8 17
-6 16 11 -3 15 -18 18 -29 11 -47 -9 -23 -9 -23 68 -22 76 2 77 2 73 27 -1 13
-9 33 -16 43 -13 18 -13 18 -20 -2 -7 -22 -39 -28 -51 -10 -4 6 -1 36 6 65 15
64 7 91 -38 123 l-30 21 3 -35 c4 -42 -4 -49 -35 -28 -19 14 -22 22 -18 64 3
27 4 49 2 49 -1 0 -12 -14 -24 -30z"/>
<path d="M851 1151 c-11 -7 -9 -13 8 -30 11 -11 21 -30 21 -41 0 -24 -10 -22
123 -24 65 -1 111 2 116 9 5 5 11 23 15 38 4 15 10 25 15 22 5 -2 11 1 14 9 3
8 -1 17 -9 20 -24 9 -287 7 -303 -3z"/>
<path d="M920 1020 c9 -16 21 -19 89 -18 65 1 80 4 90 19 11 18 6 19 -89 19
-97 0 -100 -1 -90 -20z"/>
<path d="M1406 935 c-12 -12 -13 -21 -6 -36 19 -34 64 -17 58 22 -4 29 -30 36
-52 14z"/>
<path d="M159 926 c-1 -16 -7 -51 -25 -139 -8 -43 -14 -83 -12 -89 6 -17 138
-14 149 3 18 29 9 39 -36 39 -25 0 -45 3 -45 8 0 4 7 42 15 85 8 43 15 82 15
87 0 12 -60 18 -61 6z"/>
<path d="M684 930 c-17 -4 -36 -10 -43 -15 -35 -21 -64 -175 -39 -207 31 -41
132 -28 161 21 9 16 17 32 17 35 0 13 -58 5 -70 -9 -20 -25 -55 -15 -55 15 -1
47 17 99 36 105 27 9 42 -4 36 -30 -3 -18 1 -24 19 -28 29 -5 45 12 46 52 2
53 -37 75 -108 61z"/>
<path d="M1224 890 c-28 -11 -54 -164 -31 -187 30 -31 118 -19 138 19 24 45
-19 64 -53 23 -22 -26 -42 -9 -32 29 5 19 13 26 33 27 61 3 66 4 69 27 3 20
-1 22 -43 22 -45 0 -47 1 -41 25 7 27 -2 30 -40 15z"/>
<path d="M355 850 c-34 -13 -47 -36 -52 -95 -4 -43 -2 -56 10 -61 28 -11 52
-11 70 -2 10 5 24 5 35 -1 26 -14 62 -2 62 20 0 11 -5 19 -11 19 -10 0 -6 71
7 105 5 12 -2 15 -32 16 -22 0 -46 2 -54 3 -8 2 -24 0 -35 -4z m50 -78 c-5
-31 -20 -47 -34 -38 -14 9 -14 49 0 63 19 19 40 4 34 -25z"/>
<path d="M865 849 c-37 -10 -52 -34 -60 -92 -8 -55 9 -71 71 -71 59 0 85 26
91 91 6 53 -3 66 -47 75 -14 3 -38 2 -55 -3z m43 -68 c4 -22 -13 -51 -30 -51
-15 0 -19 25 -8 54 12 32 33 30 38 -3z"/>
<path d="M1052 853 c-62 -12 -64 -103 -3 -103 16 0 33 -5 36 -10 5 -8 -10 -9
-44 -4 -46 6 -51 5 -51 -13 0 -54 143 -51 156 3 8 32 -8 50 -51 58 -37 7 -48
26 -15 26 11 0 20 -4 20 -8 0 -4 12 -8 27 -7 28 0 44 28 26 45 -10 11 -71 18
-101 13z"/>
<path d="M1524 846 c-35 -15 -44 -33 -51 -92 -3 -29 0 -44 11 -53 20 -17 75
-22 98 -10 27 14 49 40 43 50 -9 13 -49 11 -63 -3 -20 -20 -38 6 -26 39 12 34
34 41 41 14 9 -33 57 -25 61 10 2 14 -3 31 -10 37 -22 18 -71 22 -104 8z"/>
<path d="M1713 850 c-49 -20 -76 -117 -43 -150 19 -19 71 -19 78 0 2 5 13 3
25 -5 28 -18 67 -9 67 16 0 11 -5 19 -11 19 -8 0 -9 19 -4 60 l7 60 -35 0
c-20 0 -41 2 -49 4 -7 3 -23 1 -35 -4z m50 -84 c-6 -27 -33 -43 -43 -25 -9 14
0 52 14 61 17 11 34 -10 29 -36z"/>
<path d="M1380 810 c-24 -90 -12 -133 34 -126 28 4 45 34 26 46 -12 7 -12 18
-4 59 12 57 10 61 -22 61 -19 0 -25 -8 -34 -40z"/>
<path d="M1015 638 c-29 -130 -32 -162 -12 -155 6 2 11 11 9 19 -1 9 4 45 12
82 7 36 10 69 5 72 -5 2 -11 -5 -14 -18z"/>
<path d="M955 641 c-6 -11 9 -23 19 -14 9 9 7 23 -3 23 -6 0 -12 -4 -16 -9z"/>
<path d="M678 563 l-14 -78 26 -3 c58 -7 105 32 83 67 -8 12 -7 22 3 35 22 30
1 56 -45 56 l-39 0 -14 -77z m75 55 c22 -17 9 -37 -28 -44 -22 -4 -26 -2 -21
11 3 9 6 23 6 31 0 17 21 18 43 2z m-9 -64 c9 -3 16 -14 16 -24 0 -20 -19 -30
-56 -30 -21 0 -22 3 -14 24 5 13 6 27 3 30 -8 8 31 8 51 0z"/>
<path d="M1265 593 c-21 -21 -19 -34 13 -60 22 -19 24 -24 13 -32 -10 -6 -22
-6 -34 1 -15 8 -18 7 -15 -4 10 -28 78 -16 78 14 0 5 -12 20 -26 33 -28 26
-24 50 7 40 10 -4 19 -2 19 3 0 17 -40 21 -55 5z"/>
<path d="M821 575 c-31 -41 -14 -94 31 -95 20 0 58 46 58 71 0 55 -53 69 -89
24z m67 -17 c2 -13 -5 -35 -16 -47 -17 -22 -19 -22 -34 -7 -20 19 -15 56 9 74
23 17 37 10 41 -20z"/>
<path d="M947 586 c-3 -7 -9 -35 -12 -62 -9 -57 10 -52 20 6 3 19 8 43 11 53
6 20 -11 23 -19 3z"/>
<path d="M1066 581 c-21 -23 -24 -80 -5 -92 20 -12 56 -11 65 2 4 7 0 9 -14 5
-12 -4 -26 -1 -36 9 -19 19 -12 37 12 34 44 -4 62 1 59 19 -7 45 -50 57 -81
23z m62 -14 c3 -13 -4 -17 -27 -17 -34 0 -40 14 -13 29 22 13 36 9 40 -12z"/>
<path d="M1176 561 c-3 -20 -9 -46 -12 -58 -4 -14 -2 -23 4 -23 6 0 14 17 18
38 7 40 31 75 45 66 5 -3 9 -1 9 5 0 5 -13 9 -29 9 -25 -1 -30 -6 -35 -37z"/>
</g>
</svg>
